<?xml version="1.0" encoding="utf-8"?>
<!-- Generator: Adobe Illustrator 19.2.1, SVG Export Plug-In . SVG Version: 6.00 Build 0)  -->
<!DOCTYPE svg PUBLIC "-//W3C//DTD SVG 1.1//EN" "http://www.w3.org/Graphics/SVG/1.1/DTD/svg11.dtd">
<svg version="1.1" id="Layer_1" xmlns="http://www.w3.org/2000/svg" xmlns:xlink="http://www.w3.org/1999/xlink" x="0px" y="0px"
	 width="80px" height="80px" viewBox="0 0 80 80" style="enable-background:new 0 0 80 80;" xml:space="preserve">
<style type="text/css">
	.st0{fill:#FFFFFF;}
</style>
<g transform="translate(0.000000,130.000000) scale(0.100000,-0.100000)">
	<path class="st0" d="M78.5,1284.8c-41.7-21.8-70.1-66.1-75.4-118.4c-7.3-70.8-0.7-548.9,7.9-568.1c13.2-31.1,50.3-66.8,84.6-82.7
		c33.1-15.9,33.7-15.9,310.8-15.9c311.5,0,309.5,0,351.8,48.3c39.7,45,41.7,63.5,41.7,359.8c0,265.8,0,265.8-15.9,300.9
		c-8.6,19.2-23.8,43-34.4,52.9c-41,38.4-42.3,38.4-355.1,38.4C107.6,1300,107.6,1300,78.5,1284.8z M312.6,1167.1
		c33.1-8.6,74.7-47,84-76.1c8.6-26.5,4-72.1-10.6-107.8c-5.3-12.6-8.6-21.8-7.3-19.8c15.9,20.5,177.2,184.5,189.8,192.4
		c31.7,22.5,66.1,7.3,66.1-29.1c0-15.2-15.9-35.7-78.7-103.2c-43-46.3-84.6-89.3-91.9-95.9l-13.2-11.9l29.8-84
		c16.5-46.3,32.4-92.6,36.4-102.5c9.3-25.8,27.8-31.1,105.8-31.1c74.7,0,91.3-7.3,91.3-40.3c0-33.7-17.9-39-126.3-39
		c-122.3,0-119.7-2-158.7,103.8c-15.2,43-37.7,103.2-49.6,134.2l-21.8,56.2L347,886.7c-6.6-14.5-17.9-41-25.8-59.5
		c-8.6-17.9-21.8-50.3-30.4-71.4c-7.9-21.2-21.2-42.3-29.1-47.6c-27.8-19.8-65.5-6-64.8,24.5c0,9.3,21.8,72.7,48.9,141.5
		c68.1,170.6,68.1,171.9,55.6,190.5c-32.4,50.3-123-0.7-123-69.4c0-19.8,4-27.8,17.2-37c45.6-31.7,50.9-39,46.3-57.5
		c-6-23.1-40.3-39-68.1-31.1c-34.4,9.9-47.6,19.8-64.8,49.6c-13.2,22.5-16.5,37-16.5,70.8C92.4,1106.9,204.8,1197.5,312.6,1167.1z"
		/>
</g>
</svg>
